<svg data-v-423bf9ae="" xmlns="http://www.w3.org/2000/svg" viewBox="0 0 601 90" class="iconLeft"><!----><!----><!----><g data-v-423bf9ae="" id="7962e5ce-acf3-4508-a5ca-93d22581cbfe" fill="black" transform="matrix(5.769230980844901,0,0,5.769230980844901,117.80602300519675,14.999999046325684)"><path d="M6.54 10.26L6.54 9.58L2.09 9.58L2.09 6.34L6.54 6.34L6.54 5.66L2.09 5.66L2.09 2.55L6.54 2.55L6.54 1.86L1.02 1.86L1.30 2.66L1.30 10.26ZM18.94 10.26L18.94 9.95L17.89 9.60L17.89 5.96C17.89 4.49 17.01 3.58 15.43 3.58C14.36 3.58 13.64 3.98 13.36 4.68C13.08 3.99 12.28 3.58 11.10 3.58C10.39 3.58 9.42 3.78 8.71 3.98L8.51 4.03L8.76 4.80L8.76 10.26L9.53 10.26L9.53 4.51C10.05 4.37 10.58 4.28 11.10 4.28C12.36 4.28 12.95 4.82 12.95 5.96L12.95 10.26L13.72 10.26L13.72 5.96C13.72 4.87 14.27 4.28 15.43 4.28C16.58 4.28 17.14 4.87 17.14 5.96L17.14 10.26ZM21.67 1.40C21.67 1.04 21.38 0.73 21.01 0.73C20.65 0.73 20.34 1.04 20.34 1.40C20.34 1.76 20.65 2.06 21.01 2.06C21.38 2.06 21.67 1.76 21.67 1.40ZM22.44 10.26L22.44 9.95L21.39 9.60L21.39 3.72L20.62 3.72L20.62 10.26ZM25.93 10.26L25.93 9.95L24.88 9.60L24.88 0L24.11 0L24.11 10.26ZM28.64 1.40C28.64 1.04 28.35 0.73 27.99 0.73C27.62 0.73 27.31 1.04 27.31 1.40C27.31 1.76 27.62 2.06 27.99 2.06C28.35 2.06 28.64 1.76 28.64 1.40ZM29.41 10.26L29.41 9.95L28.36 9.60L28.36 3.72L27.59 3.72L27.59 10.26ZM36.40 7C36.40 4.79 35.20 3.58 33.42 3.58C31.64 3.58 30.44 4.79 30.44 7C30.44 9.20 31.64 10.40 33.42 10.40C35.20 10.40 36.40 9.20 36.40 7ZM35.62 7C35.62 8.76 34.73 9.70 33.42 9.70C32.10 9.70 31.22 8.76 31.22 7C31.22 5.22 32.10 4.28 33.42 4.28C34.73 4.28 35.62 5.22 35.62 7ZM48.34 10.02L48.34 9.30C47.60 9.52 46.72 9.67 46.07 9.67C43.93 9.67 42.74 8.41 42.74 6.06C42.74 3.71 43.93 2.45 46.07 2.45C46.52 2.45 47.07 2.52 47.60 2.65L48.03 3.60L48.34 3.60L48.34 2.10C47.60 1.88 46.72 1.72 46.07 1.72C43.44 1.72 41.92 3.37 41.92 6.06C41.92 8.75 43.44 10.40 46.07 10.40C46.72 10.40 47.60 10.25 48.34 10.02ZM55.75 10.26L55.75 9.56C55.55 9.63 55.33 9.70 55.09 9.70C54.77 9.70 54.63 9.52 54.63 9.23L54.63 5.96C54.63 4.41 53.69 3.58 52.01 3.58C51.51 3.58 50.82 3.71 50.23 3.89L50.23 5.46L50.54 5.46L50.89 4.42C51.28 4.34 51.69 4.28 52.01 4.28C53.27 4.28 53.86 4.82 53.86 5.96L53.86 6.55L51.84 6.55C50.29 6.55 49.56 7.32 49.56 8.34C49.56 9.53 50.50 10.40 52.29 10.40C52.93 10.40 53.56 10.26 54.10 10.04C54.28 10.28 54.60 10.40 54.88 10.40C55.20 10.40 55.51 10.33 55.75 10.26ZM53.86 9.41C53.40 9.59 52.86 9.72 52.29 9.72C50.99 9.72 50.34 9.18 50.34 8.34C50.34 7.67 50.78 7.22 51.84 7.22L53.86 7.22ZM63.50 10.26L63.50 9.95L62.47 9.60L62.47 5.96C62.47 4.41 61.53 3.58 59.85 3.58C59.14 3.58 58.17 3.78 57.46 3.98L57.26 4.03L57.51 4.80L57.51 10.26L58.28 10.26L58.28 4.51C58.80 4.37 59.33 4.28 59.85 4.28C61.11 4.28 61.70 4.82 61.70 5.96L61.70 10.26ZM68.57 10.29L68.57 9.59C68.38 9.66 68.07 9.70 67.87 9.70C66.75 9.70 66.37 9.24 66.37 8.26L66.37 4.41L68.57 4.41L68.57 3.72L66.37 3.72L66.37 1.82L65.60 1.93L65.60 3.72L64.20 3.72L64.20 4.41L65.60 4.41L65.60 8.26C65.60 9.63 66.33 10.40 67.87 10.40C68.07 10.40 68.38 10.36 68.57 10.29ZM75.67 7C75.67 4.79 74.47 3.58 72.69 3.58C70.91 3.58 69.71 4.79 69.71 7C69.71 9.20 70.91 10.40 72.69 10.40C74.47 10.40 75.67 9.20 75.67 7ZM74.89 7C74.89 8.76 74.00 9.70 72.69 9.70C71.37 9.70 70.49 8.76 70.49 7C70.49 5.22 71.37 4.28 72.69 4.28C74.00 4.28 74.89 5.22 74.89 7ZM74.31 0L73.56 0L72.34 2.80L73.09 2.80ZM83.62 10.26L83.62 9.95L82.59 9.60L82.59 5.96C82.59 4.41 81.65 3.58 79.97 3.58C79.25 3.58 78.29 3.78 77.57 3.98L77.38 4.03L77.63 4.80L77.63 10.26L78.40 10.26L78.40 4.51C78.92 4.37 79.45 4.28 79.97 4.28C81.23 4.28 81.82 4.82 81.82 5.96L81.82 10.26Z"></path></g><!----><g data-v-423bf9ae="" id="afc3fa7c-baf1-459e-92fd-8baf7425afa6" transform="matrix(1.2025172322188924,0,0,1.2025172322188924,13.405450542180475,-14.55313481765743)" stroke="none" fill="black"><path d="M25.913 32.797l16.736 29.195h12.234L25.676 12.753l-36.79 63.561 5.939 11.136z"></path><path d="M31.367 43.632l-5.456-9.375L-4.631 87.45h73.934l5.811-11.826-61.882.063z"></path><path d="M21.448 62.713l-7.035 12.479h60.701L38.308 12.607H26.672l29.683 50.106z"></path></g><!----></svg>